<svg width="21" height="20" viewBox="0 0 21 20" fill="none" xmlns="http://www.w3.org/2000/svg">
<path fill-rule="evenodd" clip-rule="evenodd" d="M19.6993 1.83369C18.4437 0.525169 16.3651 0.482246 15.0566 1.73782L10.8662 5.75865L6.6758 1.73782C5.36727 0.482246 3.28866 0.525169 2.03308 1.83369C0.777511 3.14222 0.820435 5.22083 2.12896 6.4764L6.12357 10.3094L1.93174 14.3316C0.623218 15.5871 0.580294 17.6658 1.83587 18.9743C3.09144 20.2828 5.17006 20.3257 6.47858 19.0702L10.8662 14.8601L15.2538 19.0702C16.5623 20.3257 18.641 20.2828 19.8965 18.9743C21.1521 17.6658 21.1092 15.5871 19.8007 14.3316L15.6088 10.3094L19.6034 6.4764C20.912 5.22083 20.9549 3.14222 19.6993 1.83369Z" fill="white"/>
</svg>
