<svg width="17" height="18" viewBox="0 0 17 18" fill="none" xmlns="http://www.w3.org/2000/svg">
<mask id="path-1-outside-1_1_149" maskUnits="userSpaceOnUse" x="1.02573" y="-0.428467" width="16" height="19" fill="black">
<rect fill="white" x="1.02573" y="-0.428467" width="16" height="19"/>
<path fill-rule="evenodd" clip-rule="evenodd" d="M9.28522 1.65734L9.28509 1.65731C6.20221 1.03793 3.03935 3.8393 2.22064 7.91435C1.40193 11.9894 3.23739 15.795 6.32027 16.4143C6.35458 16.4212 6.38889 16.4277 6.42322 16.4338L8.64324 16.8786C11.7258 17.4983 14.8887 14.6962 15.7075 10.6216L15.7076 10.6214C16.5263 6.54685 14.685 2.74109 11.6025 2.12227L9.28528 1.65703L9.28522 1.65734Z"/>
</mask>
<path fill-rule="evenodd" clip-rule="evenodd" d="M9.28522 1.65734L9.28509 1.65731C6.20221 1.03793 3.03935 3.8393 2.22064 7.91435C1.40193 11.9894 3.23739 15.795 6.32027 16.4143C6.35458 16.4212 6.38889 16.4277 6.42322 16.4338L8.64324 16.8786C11.7258 17.4983 14.8887 14.6962 15.7075 10.6216L15.7076 10.6214C16.5263 6.54685 14.685 2.74109 11.6025 2.12227L9.28528 1.65703L9.28522 1.65734Z" fill="#E86124"/>
<path d="M9.28509 1.65731L9.08812 2.63772L9.0882 2.63773L9.28509 1.65731ZM9.28522 1.65734L9.08833 2.63776L10.068 2.83449L10.2655 1.85501L9.28522 1.65734ZM2.22064 7.91435L1.24023 7.71737L2.22064 7.91435ZM6.32027 16.4143L6.51725 15.4339L6.51724 15.4339L6.32027 16.4143ZM6.42322 16.4338L6.6197 15.4532L6.60825 15.451L6.59675 15.4489L6.42322 16.4338ZM8.64324 16.8786L8.84034 15.8982L8.83971 15.8981L8.64324 16.8786ZM15.7075 10.6216L16.6879 10.8186L16.6881 10.8177L15.7075 10.6216ZM15.7076 10.6214L14.7272 10.4244L14.727 10.4253L15.7076 10.6214ZM11.6025 2.12227L11.4057 3.1027L11.4057 3.10271L11.6025 2.12227ZM9.28528 1.65703L9.48213 0.676595L8.50252 0.479919L8.30501 1.45936L9.28528 1.65703ZM9.0882 2.63773L9.08833 2.63776L9.48211 0.67691L9.48198 0.676883L9.0882 2.63773ZM3.20105 8.11132C3.5715 6.26741 4.46604 4.749 5.56684 3.77401C6.66707 2.79952 7.9208 2.40319 9.08812 2.63772L9.48206 0.6769C7.5665 0.292046 5.69736 0.986713 4.24077 2.27683C2.78474 3.56645 1.68848 5.48624 1.24023 7.71737L3.20105 8.11132ZM6.51724 15.4339C5.34993 15.1994 4.34655 14.3496 3.70807 13.0258C3.06925 11.7013 2.83059 9.95523 3.20105 8.11132L1.24023 7.71737C0.791974 9.94851 1.06169 12.1427 1.90665 13.8946C2.75194 15.6472 4.20773 17.0099 6.12329 17.3948L6.51724 15.4339ZM6.59675 15.4489C6.57027 15.4443 6.54377 15.4393 6.51725 15.4339L6.12329 17.3948C6.16538 17.4032 6.20752 17.4112 6.24969 17.4186L6.59675 15.4489ZM8.83971 15.8981L6.6197 15.4532L6.22674 17.4143L8.44676 17.8591L8.83971 15.8981ZM14.7271 10.4245C14.3566 12.2683 13.462 13.7868 12.3612 14.7619C11.2609 15.7365 10.0073 16.1328 8.84034 15.8982L8.44614 17.859C10.3617 18.2441 12.2308 17.5492 13.6873 16.259C15.1433 14.9693 16.2396 13.0495 16.6879 10.8186L14.7271 10.4245ZM14.727 10.4253L14.7269 10.4255L16.6881 10.8177L16.6881 10.8175L14.727 10.4253ZM11.4057 3.10271C12.5731 3.33706 13.5779 4.18709 14.2177 5.51104C14.8577 6.83552 15.0975 8.5813 14.7272 10.4244L16.688 10.8184C17.1364 8.58697 16.8649 6.39258 16.0184 4.64083C15.1716 2.88856 13.7145 1.5263 11.7994 1.14183L11.4057 3.10271ZM9.08844 2.63747L11.4057 3.1027L11.7994 1.14183L9.48213 0.676595L9.08844 2.63747ZM10.2655 1.85501L10.2656 1.8547L8.30501 1.45936L8.30495 1.45966L10.2655 1.85501Z" fill="white" mask="url(#path-1-outside-1_1_149)"/>
<path d="M11.5506 2.08645L9.23333 1.62122L9.09939 2.28469C6.93929 3.05801 5.08548 5.36187 4.4863 8.3435C3.88711 11.3251 4.71043 14.163 6.40261 15.7132L6.26956 16.3776L8.59128 16.8428C11.6738 17.4625 14.8367 14.6604 15.6556 10.5858C16.4744 6.51113 14.6331 2.70528 11.5506 2.08645Z" fill="#E86124"/>
<path d="M9.02438 14.6666L6.70712 14.1969L6.84017 13.5334C5.35784 12.1752 4.54345 9.8303 4.7658 7.26569C4.65231 7.61938 4.559 7.97923 4.4863 8.3435C3.88711 11.326 4.71043 14.163 6.40261 15.7132L6.26956 16.3776L8.59128 16.8428C11.6738 17.4625 14.8367 14.6604 15.6556 10.5858C15.7267 10.2227 15.7779 9.85603 15.8092 9.4874C14.6956 12.9611 11.8274 15.2256 9.02438 14.6666Z" fill="#DC4A26"/>
<path d="M13.3328 10.1215C14.1515 6.04642 12.316 2.24084 9.23314 1.62146C6.15026 1.00209 2.9874 3.80346 2.16869 7.8785C1.34998 11.9535 3.18544 15.7591 6.26832 16.3785C9.35119 16.9979 12.5141 14.1965 13.3328 10.1215Z" fill="#F0E92D"/>
<path d="M11.7902 9.81154C12.3826 6.8626 11.0544 4.10867 8.82349 3.66045C6.59256 3.21224 4.30375 5.23948 3.71128 8.18842C3.11881 11.1374 4.44704 13.8913 6.67797 14.3395C8.90889 14.7877 11.1977 12.7605 11.7902 9.81154Z" fill="#EF8521"/>
<path d="M7.69385 12.9128C5.44356 12.461 3.88533 10.3804 3.76478 7.94434C3.74573 8.0247 3.72787 8.10596 3.7112 8.18812C3.11916 11.1349 4.4479 13.8906 6.67854 14.3389C8.11444 14.6273 9.57355 13.8924 10.5898 12.5413C9.69011 12.9754 8.67391 13.1057 7.69385 12.9128Z" fill="#E86124"/>
</svg>
