<svg width="20" height="23" viewBox="0 0 20 23" fill="none" xmlns="http://www.w3.org/2000/svg">
<path d="M19.9928 12.2532C19.9858 11.0898 19.0389 10.1477 17.8731 10.1477C16.7012 10.1477 15.751 11.0965 15.751 12.2681C15.751 12.3454 15.7561 12.4238 15.765 12.5001V12.6014C15.765 15.7799 13.1794 18.3656 10.001 18.3656C6.82275 18.3656 4.23673 15.7799 4.23673 12.6014C4.23673 9.42465 6.82275 6.83766 10.001 6.83766C10.2401 6.83766 10.4796 6.85258 10.7185 6.88266V7.75157C10.7192 7.75157 10.72 7.75157 10.72 7.75157C10.72 7.75542 10.7185 7.75999 10.7185 7.76552C10.7185 8.62071 11.4125 9.31493 12.2686 9.31493C12.7658 9.31493 13.2035 9.07767 13.4867 8.71408C13.4874 8.71408 13.4874 8.71408 13.4874 8.71408L16.1769 6.01737C16.4933 5.7327 16.6955 5.3258 16.6955 4.86813C16.6955 4.34163 16.4325 3.87939 16.0323 3.59978L13.4196 0.983436C13.3823 0.939401 13.3428 0.900179 13.3017 0.863844L13.2564 0.818847C13.2514 0.818847 13.2485 0.815959 13.2432 0.815959C12.9768 0.59771 12.6406 0.46344 12.2684 0.46344C11.4544 0.46344 10.7948 1.09244 10.731 1.88988C10.726 1.89421 10.7231 1.90095 10.718 1.9048V2.62909C10.4774 2.61176 10.2382 2.60334 10.0005 2.60334C4.4865 2.60334 0 7.08864 0 12.6017C0 18.1152 4.4865 22.6002 10.0005 22.6002C15.5145 22.6 20 18.1149 20 12.6014V12.2588C19.9969 12.2576 19.9957 12.2547 19.9928 12.2532Z" fill="white"/>
</svg>
