<svg width="21" height="22" viewBox="0 0 21 22" fill="none" xmlns="http://www.w3.org/2000/svg">
<path d="M18.5633 11.7042L18.5705 10.5605L20.5346 8.72625C20.7838 8.49607 20.8351 8.13641 20.6665 7.84869L18.5047 4.09385C18.3361 3.80613 17.999 3.66946 17.6692 3.75578L15.0603 4.4679L13.9611 3.8349L13.3015 1.25255C13.2209 0.936053 12.9278 0.705872 12.5907 0.705872H8.19367C7.85656 0.705872 7.56343 0.936053 7.48281 1.25255L6.82326 3.8349L5.72401 4.4679L3.11511 3.75578C2.78534 3.66946 2.44823 3.80613 2.27968 4.09385L0.117816 7.84869C-0.0507365 8.13641 0.000562055 8.49607 0.249726 8.72625L2.21373 10.5605L2.22105 11.7042L0.27904 13.5601C0.0372038 13.7902 -0.0140947 14.1499 0.154457 14.4376L2.37495 18.1637C2.5435 18.4514 2.88793 18.5881 3.21038 18.4946L5.81195 17.7537L6.82326 18.3219L7.48281 20.9043C7.56343 21.2208 7.85649 21.451 8.19367 21.451H12.5907C12.9278 21.451 13.2209 21.2208 13.3015 20.9043L13.9611 18.3219L14.9724 17.7537L17.574 18.4946C17.8964 18.5881 18.2408 18.4514 18.4094 18.1637L20.6299 14.4376C20.7984 14.1499 20.7471 13.7902 20.5053 13.5601L18.5633 11.7042ZM10.3922 15.1569C8.10573 15.1569 6.23699 13.3227 6.23699 11.0784C6.23699 8.83415 8.10573 6.99989 10.3922 6.99989C12.6786 6.99989 14.5474 8.83415 14.5474 11.0784C14.5474 13.3227 12.6786 15.1569 10.3922 15.1569Z" fill="white"/>
</svg>
